<svg xmlns="http://www.w3.org/2000/svg" viewBox="65 60 390 270" width="390" height="270">
  <title>Buraq Minds — Master Logo</title>
  
  <g transform="translate(0,370) scale(0.1,-0.1)" fill="#333435" stroke="none"><path d="M2411 2974 c19 -10 38 -32 50 -60 l20 -44 -45 -277 c-25 -153 -52 -339
-61 -413 -22 -191 -14 -174 -106 -221 -45 -22 -83 -38 -86 -36 -9 10 78 619
129 895 34 189 35 190 99 156z"/><path d="M2709 2800 c133 -12 186 -24 259 -58 100 -47
138 -109 112 -188 -17 -51 -69 -106 -177 -186 -51 -37 -93 -74 -93 -82 0 -26
38 -45 175 -86 218 -66 269 -99 308 -198 22 -54 21 -76 -2 -150 -61 -196 -296
-321 -820 -437 -62 -14 -115 -25 -116 -25 -4 0 7 164 10 168 2 2 61 18 133 37
204 54 347 103 452 156 275 140 222 254 -155 332 -66 14 -169 31 -228 38 -95
11 -110 15 -124 35 -9 15 -12 34 -9 51 6 25 20 34 119 76 210 87 367 206 367
277 0 75 -88 110 -295 117 l-141 5 10 59 c9 51 13 58 35 62 47 7 65 7 180 -3z"/><path d="M2258 2713 l-11 -62 -71 -17 c-188 -44 -502 -206 -526 -270 -38 -99 125 -128
364 -65 65 17 121 30 123 28 9 -9 -20 -104 -45 -150 -41 -75 -77 -98 -173
-108 -99 -10 -267 3 -334 26 -136 46 -193 144 -146 250 73 165 304 306 636
389 99 25 188 44 192 41 1 -1 -3 -29 -9 -62z"/><path d="M2602 1999 c22 -29 21 -98 -2
-110 -8 -4 -54 -16 -102 -27 -172 -40 -442 -178 -569 -290 -39 -36 -42 -41
-29 -57 12 -15 25 -16 90 -11 41 4 86 10 99 13 l24 6 -6 -78 c-4 -43 -9 -80
-11 -83 -3 -2 -51 -4 -109 -4 -122 0 -202 19 -249 61 -90 80 14 203 340 400
102 61 315 172 381 197 52 20 120 12 143 -17z"/><path d="M2337 1702 c-4 -37 -9 -142 -12
-233 -3 -90 -8 -201 -11 -246 -5 -77 -7 -83 -27 -83 -34 0 -99 42 -125 80 -24
35 -24 37 -18 205 3 94 9 192 13 219 l6 49 81 38 c45 21 85 38 90 38 5 1 6
-29 3 -67z"/><path d="M2282 800 c48 -14 94 -67 103 -120 6 -33 2 -51 -17 -90 l-24 -49
28 6 c23 5 28 2 28 -15 0 -19 -7 -21 -87 -24 -73 -4 -95 -1 -132 16 -111 52
-109 216 2 266 49 23 51 23 99 10z"/><path d="M859 776 c25 -23 28 -77 6 -100 -14 -14
-14 -17 5 -36 25 -25 26 -71 1 -101 -17 -21 -29 -24 -105 -28 l-86 -3 0 147 0
147 79 -3 c60 -3 84 -9 100 -23z"/><path d="M1080 698 c0 -57 4 -108 8 -114 13 -19 50 -34
69 -27 48 17 53 31 53 140 l0 103 25 0 25 0 0 -114 c0 -99 -3 -117 -21 -139
-37 -49 -126 -57 -179 -17 -23 17 -25 27 -30 117 -7 137 -4 153 26 153 24 0
24 -1 24 -102z"/><path d="M1584 771 c41 -39 33 -102 -16 -128 -17 -8 -16 -11 6 -43 12 -19
31 -47 41 -62 l17 -28 -30 0 c-27 0 -35 8 -67 60 -24 40 -43 60 -56 60 -17 0
-19 -7 -19 -60 0 -57 -1 -60 -25 -60 l-25 0 0 146 0 146 74 -4 c62 -3 79 -7
100 -27z"/><path d="M1935 664 c28 -75 52 -141 53 -145 2 -5 -9 -9 -25 -9 -23 0 -31 6
-40 30 -11 29 -14 30 -71 30 -59 0 -61 -1 -67 -30 -6 -25 -11 -30 -37 -30 -20
0 -29 4 -26 13 3 6 27 72 54 145 48 129 49 132 79 132 30 0 31 -2 80 -136z"/><path d="M2179 721 c-57 -58 -23 -151 56 -151 49 0 74 15 91 55 38 92 -76 167 -147 96z"/><path d="M737 743 c-4 -3 -7 -19 -7 -35 0 -28 2 -29 41 -26 52 4 75 31 45 54 -20 14
-68 19 -79 7z"/><path d="M732 598 c3 -30 6 -33 38 -34 44 -1 57 4 64 23 10 26 -14 43
-61 43 -44 0 -44 0 -41 -32z"/><path d="M1467 743 c-4 -3 -7 -19 -7 -35 0 -28 1 -29 47
-26 38 2 49 7 51 22 3 11 -4 26 -14 33 -19 14 -66 18 -77 6z"/><path d="M1845 719 c-2 -8
-11 -33 -19 -56 l-15 -43 44 0 44 0 -16 48 c-18 55 -30 71 -38 51zz"/></g>
  <g transform="translate(0,370) scale(0.1,-0.1)" fill="#ED1C24" stroke="none"><path d="M3715 2858 c25 -22 26 -28 32 -170 5 -125 4 -150 -10 -171 -35 -53
-108 -38 -125 25 -8 32 -8 32 -72 -73 -85 -139 -96 -151 -140 -147 -34 3 -37
7 -85 105 -27 56 -53 104 -56 107 -3 3 -36 -65 -73 -152 -37 -86 -75 -163 -84
-170 -26 -20 -72 -10 -95 20 l-20 27 96 228 c119 280 117 275 149 291 49 23
71 2 126 -121 27 -61 54 -113 59 -114 6 -2 50 63 99 144 96 160 122 193 153
193 11 0 32 -10 46 -22z"/><path d="M3727 2404 c20 -20 24 -31 19 -57 -8 -39 -30 -57 -70
-57 -65 0 -92 78 -40 119 35 28 59 26 91 -5z"/><path d="M4315 796 c38 -16 43 -27 20
-46 -11 -9 -22 -10 -38 -3 -33 14 -59 5 -55 -20 2 -15 18 -29 50 -44 79 -37
100 -96 55 -149 -31 -36 -99 -38 -146 -5 -36 26 -39 36 -10 51 16 9 24 8 38
-4 22 -20 65 -21 81 -1 17 20 6 31 -63 65 -44 22 -53 32 -61 62 -11 42 9 83
47 98 31 12 43 12 82 -4z"/><path d="M2830 705 c24 -53 47 -98 52 -101 4 -3 29 40 55 95
43 93 48 101 75 101 l28 0 0 -145 0 -145 -25 0 c-25 0 -25 1 -25 80 0 44 -4
80 -8 80 -4 0 -26 -36 -47 -80 -21 -44 -44 -80 -50 -80 -7 0 -29 38 -51 85
-21 46 -42 84 -46 85 -5 0 -8 -38 -8 -85 0 -84 0 -85 -25 -85 l-25 0 0 145 0
145 29 0 c26 0 31 -7 71 -95z"/><path d="M3250 655 l0 -145 -24 0 c-31 0 -32 4 -28 161 l3
129 25 0 24 0 0 -145z"/><path d="M3518 716 c93 -126 92 -126 92 -12 0 96 0 96 25 96 14 0
25 -6 26 -12 0 -15 0 -259 0 -271 -1 -5 -13 -7 -28 -5 -22 2 -43 23 -96 95
-38 51 -73 90 -78 87 -5 -3 -9 -45 -9 -95 0 -88 0 -89 -25 -89 l-25 0 0 145 0
145 28 0 c23 0 38 -14 90 -84z"/><path d="M3968 780 c33 -15 47 -29 62 -62 24 -53 24 -67 4
-118 -23 -58 -70 -83 -153 -84 l-66 -1 -3 129 c-1 72 0 136 2 143 8 20 104 16
154 -7z"/><path d="M3870 656 c0 -90 6 -100 52 -89 65 16 90 92 47 147 -16 20 -29 26 -60
26 l-39 0 0 -84zz"/></g>
</svg>